<svg xmlns="http://www.w3.org/2000/svg" viewBox="0 0 200 200" width="200" height="200">
  <defs>
    <linearGradient id="blueGrad" x1="0%" y1="0%" x2="100%" y2="100%">
      <stop offset="0%" style="stop-color:#1565C0;stop-opacity:1" />
      <stop offset="100%" style="stop-color:#1E88E5;stop-opacity:1" />
    </linearGradient>
    <linearGradient id="greenGrad" x1="0%" y1="100%" x2="100%" y2="0%">
      <stop offset="0%" style="stop-color:#43A047;stop-opacity:1" />
      <stop offset="100%" style="stop-color:#76C442;stop-opacity:1" />
    </linearGradient>
  </defs>

  <!-- D letter (blue) -->
  <path d="M20 40 L20 160 L80 160 C120 160 145 135 145 100 C145 65 120 40 80 40 Z
            M55 75 L78 75 C98 75 108 85 108 100 C108 115 98 125 78 125 L55 125 Z"
        fill="url(#blueGrad)"/>

  <!-- J letter (blue) -->
  <path d="M155 40 L155 130 C155 155 140 168 115 168 C105 168 96 165 90 160 L105 143 C108 146 111 148 115 148 C122 148 127 144 127 131 L127 40 Z"
        fill="url(#blueGrad)"/>

  <!-- Arrow (green, diagonal top-right) -->
  <g transform="translate(105, 18) rotate(0)">
    <!-- Arrow shaft -->
    <line x1="0" y1="40" x2="50" y2="0" stroke="url(#greenGrad)" stroke-width="12" stroke-linecap="round"/>
    <!-- Arrowhead -->
    <polygon points="50,0 22,0 50,22" fill="url(#greenGrad)"/>
  </g>
</svg>
